# xmcd CD database file
#
# Track frame offsets:
#	150
#	17036
#	34220
#	49909
#	63446
#	75084
#	91806
#	111130
#	125605
#	139753
#	156630
#	171093
#	191141
#	206904
#	225269
#
# Disc length: 3227 seconds
#
# Revision: 0
# Processed by: cddbd v1.5.1PL0 Copyright (c) Steve Scherf et al.
# Submitted via: CDex 1.51
#
DISCID=c90c990f
DTITLE=Sempre Amigos - Sempre Amigos
DYEAR=2004
DGENRE=Country
TTITLE0=Ligação Urbana - Bruno and Marrone
TTITLE1=Pra mudar a minha vida - Zezé di Camargo and Luciano
TTITLE2=O coração chora - Di Paulo and Paulino
TTITLE3=Mulher Chorona - Teodoro and Sampaio
TTITLE4=Amor Safado - Sula Miranda
TTITLE5=Misterios - Matogrosso and Mathias
TTITLE6=Apaixonado por voce - Gino and Geno
TTITLE7=Teimosa - Gian and Giovani
TTITLE8=Azul - Edson and Hudson
TTITLE9=Um degrau na escada - Chico Rey and Paraná
TTITLE10=Solidão - Marcos Paulo and Juliano
TTITLE11=Dona do meu coração - Guilherme and Santiago
TTITLE12=Alma Sertaneja - Roberta Miranda
TTITLE13=Por que chora a tarde - Milionário and José Rico
TTITLE14=Na boca do povo - Sergio and Junior
EXTD=YEAR: 2004
EXTT0=
EXTT1=
EXTT2=
EXTT3=
EXTT4=
EXTT5=
EXTT6=
EXTT7=
EXTT8=
EXTT9=
EXTT10=
EXTT11=
EXTT12=
EXTT13=
EXTT14=
PLAYORDER=
